<?xml version="1.0" encoding="UTF-8" standalone="no"?>
<svg width="130px" height="77px" viewBox="0 0 130 77" version="1.1" xmlns="http://www.w3.org/2000/svg" xmlns:xlink="http://www.w3.org/1999/xlink">
    <!-- Generator: Sketch 48.1 (47250) - http://www.bohemiancoding.com/sketch -->
    <title>Logo</title>
    <desc>Created with Sketch.</desc>
    <defs>
        <polygon id="path-1" points="0 76.8181818 103.875482 76.8181818 129.855397 76.8181818 129.855397 0.0276120654 0 0.0276120654"></polygon>
    </defs>
    <g id="Desktop-HD-Copy-2" stroke="none" stroke-width="1" fill="none" fill-rule="evenodd" transform="translate(-160.000000, -30.000000)">
        <g id="Logo" transform="translate(160.000000, 30.000000)">
            <path d="M42.9497306,45.657546 L60.0502694,45.657546 L68.6003658,30.9998288 L60.0502694,16.342454 L42.9497306,16.342454 L34.3996342,30.9998288 L42.9497306,45.657546 Z M60.2499135,46 L42.7500865,46 L34,30.9998288 L42.7500865,16 L60.2499135,16 L69,30.9998288 L60.2499135,46 Z" id="Fill-1" fill="#CC8460"></path>
            <path d="M35.3881657,42.4939811 L50.09946,52.6005925 L66.7111104,45.6067854 L68.6122023,28.5060189 L53.9009079,18.3994075 L37.2892575,25.3932146 L35.3881657,42.4939811 Z M50.0549405,53 L35,42.6571536 L36.9452434,25.1569797 L53.9454274,18 L69,28.3428464 L67.0551245,45.8433682 L66.9579911,45.8840744 L50.0549405,53 Z" id="Fill-2" fill="#CC8460"></path>
            <path d="M43.8019688,52.9802503 L60.9026015,56.6119496 L72.6006327,43.6313459 L67.1983849,27.0197497 L50.0977523,23.3884038 L38.3997211,36.3683007 L43.8019688,52.9802503 Z M61.0285313,57 L60.9287779,56.9787951 L43.528885,53.2831275 L38,36.2834809 L49.9714687,23 L67.4714687,26.7165191 L73,43.7161656 L61.0285313,57 Z" id="Fill-3" fill="#CC8460"></path>
            <path d="M42.3997211,45.6316993 L54.0977523,58.612303 L71.1983849,54.9806037 L76.6006327,38.3686541 L64.9026015,25.3887572 L47.8019688,29.0201031 L42.3997211,45.6316993 Z M53.9714687,59 L53.9031978,58.924369 L42,45.7165191 L47.528885,28.7165191 L65.0285313,25 L77,38.2838344 L71.4714687,55.2838344 L71.3717153,55.3050393 L53.9714687,59 Z" id="Fill-4" fill="#CC8460"></path>
            <path d="M50.2888896,52.6068588 L66.90054,59.6005964 L81.6122023,49.4940855 L79.7114783,32.3931412 L63.0990921,25.3997515 L48.3877977,35.5062624 L50.2888896,52.6068588 Z M66.9454274,60 L49.9448755,52.8434394 L49.9342055,52.7435885 L48,35.3430915 L63.0545726,25 L80.0547566,32.1572565 L82,49.6569085 L66.9454274,60 Z" id="Fill-5" fill="#CC8460"></path>
            <path d="M60.9498191,54.657546 L78.0501809,54.657546 L86.6007078,40.0001712 L78.0501809,25.342454 L60.9498191,25.342454 L52.3996382,40.0001712 L60.9498191,54.657546 Z M78.250173,55 L60.750173,55 L52,40.0001712 L60.750173,25 L78.250173,25 L78.299998,25.0856135 L87,40.0001712 L78.250173,55 Z" id="Fill-6" fill="#CC8460"></path>
            <path d="M57.3881657,44.4937376 L72.09946,54.6005964 L88.7114783,47.6068588 L90.6118343,30.5059145 L75.9009079,20.3994036 L59.2888896,27.3931412 L57.3881657,44.4937376 Z M72.0549405,55 L57,44.6569085 L58.9448755,27.1569085 L59.0423768,27.1162028 L75.9454274,20 L91,30.3427435 L89.0551245,47.8427435 L88.9579911,47.8837972 L72.0549405,55 Z" id="Fill-7" fill="#CC8460"></path>
            <path d="M62.8019688,45.9805619 L79.9022477,49.6119456 L91.6009864,36.6315603 L86.1980312,20.0197915 L69.0977523,16.3880544 L57.3997211,29.3684397 L62.8019688,45.9805619 Z M80.028885,50 L79.9287779,49.9787948 L62.528885,46.2834423 L57,29.283619 L68.9714687,16 L86.4718224,19.7165577 L86.5029512,19.813748 L92,36.716381 L80.028885,50 Z" id="Fill-8" fill="#CC8460"></path>
            <path d="M57.3997211,30.6315603 L69.0977523,43.612299 L86.1980312,39.9805619 L91.6009864,23.3684397 L79.9022477,10.3880544 L62.8019688,14.0194381 L57.3997211,30.6315603 Z M68.9714687,44 L68.9031978,43.9243683 L57,30.716381 L62.528885,13.7165577 L80.028885,10 L80.0968022,10.0759852 L92,23.283619 L86.4718224,40.2837957 L68.9714687,44 Z" id="Fill-9" fill="#CC8460"></path>
            <path d="M59.2888896,32.6069323 L75.90054,39.6006004 L90.6122023,29.493842 L88.7114783,12.3934156 L72.0990921,5.39974752 L57.3877977,15.5065059 L59.2888896,32.6069323 Z M75.9454274,40 L58.9448755,32.8428147 L58.9342055,32.7429648 L57,15.3429886 L72.0545726,5 L89.0547566,12.1571853 L91,29.6570114 L75.9454274,40 Z" id="Fill-10" fill="#CC8460"></path>
            <path d="M60.9497306,33.6575499 L78.0502694,33.6575499 L86.6007118,19 L78.0502694,4.34245012 L60.9497306,4.34245012 L52.3996342,19 L60.9497306,33.6575499 Z M78.2502595,34 L60.7500865,34 L52,19 L60.7500865,4 L78.2502595,4 L78.300084,4.08561253 L87,19 L78.2502595,34 Z" id="Fill-11" fill="#CC8460"></path>
            <path d="M66.9452224,0 L49.9452224,7.15718532 L48,24.6570114 L63.0547776,35 L80.0544097,27.8428147 L82,10.3426407 L66.9452224,0 Z M48.3881615,24.4934941 L50.2888648,7.39341557 L66.9007034,0.399399608 L81.6118385,10.5065059 L79.7111352,27.6065844 L63.0992966,34.6006004 L48.3881615,24.4934941 Z" id="Fill-12" fill="#CC8460"></path>
            <path d="M47.8019688,30.9802921 L64.9026015,34.6116002 L76.6006327,21.6318383 L71.1983849,5.02006133 L54.0977523,1.38875318 L42.3997211,14.3685151 L47.8019688,30.9802921 Z M65.028885,35 L47.528885,31.2835196 L42,14.2836963 L53.9714687,1 L71.4714687,4.71683384 L77,21.7166571 L65.028885,35 Z" id="Fill-13" fill="#CC8460"></path>
            <path d="M38.3997211,25.6314849 L50.0977523,38.6116002 L67.1983849,34.9799387 L72.6006327,18.3681617 L60.9026015,5.38839977 L43.8019688,9.02006133 L38.3997211,25.6314849 Z M49.9714687,39 L38,25.7163037 L43.528885,8.71648043 L61.0285313,5 L73,18.2833429 L67.4714687,35.283873 L49.9714687,39 Z" id="Fill-14" fill="#CC8460"></path>
            <path d="M37.2888896,34.6069323 L53.90054,41.6006004 L68.6118343,31.493842 L66.7111104,14.3934156 L50.0990921,7.39974752 L35.3877977,17.5065059 L37.2888896,34.6069323 Z M53.9454274,42 L36.9448755,34.8428147 L36.9342055,34.7429648 L35,17.3429886 L50.0545726,7 L67.0547566,14.1571853 L67.0657945,14.2570352 L69,31.6570114 L53.9454274,42 Z" id="Fill-15" fill="#CC8460"></path>
            <g id="Group-35">
                <g id="Group-18" transform="translate(0.000000, 66.906158)" fill="#E8E8E8">
                    <path d="M5.45551233,2.56441747 C4.74318356,1.92721596 4.13093699,1.88473586 3.86025205,1.88473586 C3.56107397,1.88473586 3.19066301,1.92721596 2.93422466,2.21041663 C2.7917589,2.35166297 2.69203288,2.56441747 2.69203288,2.80513804 C2.69203288,3.03134457 2.76326575,3.20161898 2.90573151,3.32870528 C3.13367671,3.54110578 3.46134795,3.62606598 4.10244384,3.86678655 L4.81441644,4.13547319 C5.22756712,4.29158756 5.74044384,4.50398806 6.11085479,4.8579889 C6.66611507,5.38155614 6.80858082,6.06123775 6.80858082,6.61347905 C6.80858082,7.59016736 6.46666301,8.43976938 5.96838904,8.94917658 C5.1278411,9.82745266 3.90299178,9.91205886 3.27614247,9.91205886 C2.59230685,9.91205886 1.99430685,9.81329263 1.39595068,9.51593192 C0.911567123,9.27485735 0.355950685,8.83625031 0.000142465753,8.48224948 L1.13951233,6.92464579 C1.38170411,7.16536636 1.76636164,7.49104713 2.0228,7.6468075 C2.39285479,7.87336804 2.77751233,7.9866483 3.21915616,7.9866483 C3.50408767,7.9866483 3.90299178,7.93000817 4.21641644,7.66096753 C4.40162192,7.50520716 4.55797808,7.25032656 4.55797808,6.89632572 C4.55797808,6.58480499 4.43011507,6.38691852 4.23066301,6.21699811 C3.97422466,6.00459761 3.39011507,5.79219711 3.11943014,5.69307687 L2.33586849,5.42403624 C1.89422466,5.26862987 1.38170411,5.0700354 1.01129315,4.67390846 C0.512663014,4.14998722 0.441430137,3.48481965 0.441430137,3.03134457 C0.441430137,2.1962566 0.697868493,1.48825492 1.26773151,0.907693548 C1.93732055,0.22801194 2.7347726,0.0442855048 3.61806027,0.0442855048 C4.27340274,0.0442855048 5.32729315,0.157565773 6.43816986,0.978847717 L5.45551233,2.56441747 Z" id="Fill-16"></path>
                </g>
                <path d="M19.5305945,76.3085976 C18.6900466,76.7333986 18.0065671,76.8180048 17.4367041,76.8180048 C15.6847315,76.8180048 14.5022658,76.2236374 13.7048137,75.4451896 C12.8500192,74.6239076 12.2231699,73.3781787 12.2231699,71.8630551 C12.2231699,70.3766056 12.8500192,69.1308766 13.7048137,68.3092407 C14.5450055,67.5024728 15.770211,66.9502315 17.2514986,66.9502315 C17.8783479,66.9502315 18.6045671,67.0780258 19.5305945,67.4741527 L19.5305945,69.9942847 C19.046211,69.4848775 18.3199918,68.9889223 17.3084849,68.9889223 C16.5106767,68.9889223 15.869937,69.2438029 15.3713068,69.725244 C14.8441836,70.2350052 14.4737726,70.999647 14.4737726,71.9055352 C14.4737726,72.8822235 14.8726767,73.5760651 15.300074,73.9867061 C15.499526,74.1849466 16.1833616,74.779668 17.3512247,74.779668 C17.9210877,74.779668 18.6900466,74.6239076 19.5305945,73.8026257 L19.5305945,76.3085976 Z" id="Fill-19" fill="#E8E8E8"></path>
                <path d="M30.5433397,73.1512995 L29.3754767,69.98016 L28.193011,73.1512995 L30.5433397,73.1512995 Z M31.1416959,74.8221835 L27.5522712,74.8221835 L26.8256959,76.6059937 L24.5466,76.6059937 L28.3782164,67.1626674 L30.3869836,67.1626674 L34.1327644,76.6059937 L31.8540247,76.6059937 L31.1416959,74.8221835 Z" id="Fill-21" fill="#E8E8E8"></path>
                <polygon id="Fill-23" fill="#E8E8E8" points="41.6703781 67.1626674 41.6703781 74.7655434 44.619063 74.7655434 44.619063 76.6059937 39.4771178 76.6059937 39.4771178 67.1626674"></polygon>
                <polygon id="Fill-25" fill="#E8E8E8" points="55.5033753 69.0031885 52.3267452 69.0031885 52.3267452 70.8294788 55.346663 70.8294788 55.346663 72.6699292 52.3267452 72.6699292 52.3267452 74.7652602 55.5033753 74.7652602 55.5033753 76.6060645 50.1334849 76.6060645 50.1334849 67.1627382 55.5033753 67.1627382"></polygon>
                <polygon id="Fill-27" fill="#E8E8E8" points="66.8293315 69.0031885 63.7524274 69.0031885 63.7524274 70.8294788 66.6013863 70.8294788 66.6013863 72.6699292 63.7524274 72.6699292 63.7524274 76.6060645 61.5591671 76.6060645 61.5591671 67.1627382 66.8293315 67.1627382"></polygon>
                <mask id="mask-2" fill="white">
                    <use xlink:href="#path-1"></use>
                </mask>
                <g id="Clip-30"></g>
                <polygon id="Fill-29" fill="#E8E8E8" mask="url(#mask-2)" points="72.7565479 76.6057813 74.9501644 76.6057813 74.9501644 67.162455 72.7565479 67.162455"></polygon>
                <polygon id="Fill-31" fill="#E8E8E8" mask="url(#mask-2)" points="81.3475534 76.6059229 81.3475534 67.1625966 83.2558822 67.1625966 88.4124301 73.250349 88.4124301 67.1625966 90.6060466 67.1625966 90.6060466 76.6059229 88.6973616 76.6059229 83.5408137 70.4898504 83.5408137 76.6059229"></polygon>
                <path d="M99.1550959,74.7654018 L99.7392055,74.7654018 C100.195096,74.7654018 101.192356,74.7229217 101.904329,74.1282003 C102.417205,73.7037532 102.83,72.8966313 102.83,71.8491429 C102.83,70.8296204 102.417205,70.1782589 102.046795,69.810452 C101.334466,69.1024504 100.408795,69.0033301 99.7392055,69.0033301 L99.1550959,69.0033301 L99.1550959,74.7654018 Z M99.9671507,67.1625258 C101.220849,67.1625258 102.545425,67.3469602 103.713288,68.4652488 C104.553836,69.2720168 105.080959,70.3768534 105.080959,71.8491429 C105.080959,73.3355924 104.568082,74.4114009 103.784521,75.1902028 C102.473836,76.5067319 100.836192,76.6058521 100.038027,76.6058521 L96.9618356,76.6058521 L96.9618356,67.1625258 L99.9671507,67.1625258 Z" id="Fill-32" fill="#E8E8E8" mask="url(#mask-2)"></path>
                <polygon id="Fill-33" fill="#E8E8E8" mask="url(#mask-2)" points="116.364353 69.0031885 113.187723 69.0031885 113.187723 70.8294788 116.207641 70.8294788 116.207641 72.6699292 113.187723 72.6699292 113.187723 74.7652602 116.364353 74.7652602 116.364353 76.6060645 110.994463 76.6060645 110.994463 67.1627382 116.364353 67.1627382"></polygon>
                <path d="M124.613548,71.4525203 L125.112178,71.4525203 C125.511082,71.4525203 126.052452,71.4100402 126.422507,71.0418793 C126.579575,70.886119 126.778671,70.5891123 126.778671,70.1214772 C126.778671,69.5837499 126.522233,69.3005492 126.337384,69.1589489 C125.981219,68.8902623 125.411356,68.8619422 125.126425,68.8619422 L124.613548,68.8619422 L124.613548,71.4525203 Z M125.753274,67.1627382 C126.964233,67.1627382 127.718945,67.5592191 128.174836,67.9840201 C128.573384,68.365987 129.000781,69.0456686 129.000781,70.0935111 C129.000781,70.6882325 128.872562,71.4242003 128.259959,72.0189217 C127.932288,72.3300884 127.462507,72.6132891 126.93574,72.7410834 L129.855575,76.6060645 L127.177575,76.6060645 L124.613548,72.8823297 L124.613548,76.6060645 L122.420288,76.6060645 L122.420288,67.1627382 L125.753274,67.1627382 Z" id="Fill-34" fill="#E8E8E8" mask="url(#mask-2)"></path>
            </g>
        </g>
    </g>
</svg>