<svg id="Layer_1" data-name="Layer 1" xmlns="http://www.w3.org/2000/svg" viewBox="0 0 496.81 110.11"><defs><style>.cls-1{fill:#cc8460;}</style></defs><path class="cls-1" d="M147.54,48.06a6.5,6.5,0,0,0-4.48-1.92,3.33,3.33,0,0,0-2.6.92,2.38,2.38,0,0,0-.68,1.68,1.87,1.87,0,0,0,.6,1.48c.64.6,1.56.84,3.36,1.52l2,.76a10.72,10.72,0,0,1,3.64,2,6.66,6.66,0,0,1,2,5,9.56,9.56,0,0,1-2.36,6.6c-2.36,2.48-5.8,2.72-7.56,2.72a11.3,11.3,0,0,1-5.28-1.12,17,17,0,0,1-3.92-2.92l3.2-4.4a16.38,16.38,0,0,0,2.48,2,6.2,6.2,0,0,0,3.36,1,4.26,4.26,0,0,0,2.8-.92,2.76,2.76,0,0,0,1-2.16,2.35,2.35,0,0,0-.92-1.92A13,13,0,0,0,141,56.89l-2.2-.76A9,9,0,0,1,135.06,54a6.56,6.56,0,0,1-1.6-4.64,8.2,8.2,0,0,1,2.32-6,8.59,8.59,0,0,1,6.6-2.44,12.9,12.9,0,0,1,7.92,2.64Z"/><path class="cls-1" d="M187.05,67.37a12.39,12.39,0,0,1-5.88,1.44c-4.92,0-8.24-1.68-10.48-3.88a14.29,14.29,0,0,1,0-20.16,14.16,14.16,0,0,1,10-3.84,15.89,15.89,0,0,1,6.4,1.48v7.12a8.45,8.45,0,0,0-6.24-2.84,7.48,7.48,0,0,0-5.44,2.08,8.55,8.55,0,0,0-2.52,6.16,7.8,7.8,0,0,0,8.08,8.12,8.41,8.41,0,0,0,6.12-2.76Z"/><path class="cls-1" d="M219.65,63.17H209.58l-2,5h-6.4L211.9,41.54h5.64l10.52,26.68h-6.4ZM218,58.45l-3.28-9-3.32,9Z"/><path class="cls-1" d="M249.22,41.54V63h8.28v5.2H243.06V41.54Z"/><path class="cls-1" d="M288.05,46.74h-8.92V51.9h8.48v5.2h-8.48V63h8.92v5.2H273V41.54h15.08Z"/><path class="cls-1" d="M319.85,46.74h-8.64V51.9h8v5.2h-8V68.21h-6.16V41.54h14.8Z"/><path class="cls-1" d="M342.66,41.54V68.21H336.5V41.54Z"/><path class="cls-1" d="M360.62,68.21V41.54H366l14.48,17.2V41.54h6.16V68.21h-5.36L366.78,50.94V68.21Z"/><path class="cls-1" d="M412.9,41.54c3.52,0,7.24.52,10.52,3.68a12.73,12.73,0,0,1,3.84,9.56,12.75,12.75,0,0,1-3.64,9.44,14.38,14.38,0,0,1-10.52,4h-8.64V41.54ZM410.62,63h1.64c1.28,0,4.08-.12,6.08-1.8a8.33,8.33,0,0,0,2.6-6.44,7.89,7.89,0,0,0-2.2-5.76,8.81,8.81,0,0,0-6.48-2.28h-1.64Z"/><path class="cls-1" d="M458.93,46.74H450V51.9h8.48v5.2H450V63h8.92v5.2H443.86V41.54h15.08Z"/><path class="cls-1" d="M485.29,41.54a9.54,9.54,0,0,1,6.8,2.32,8,8,0,0,1,2.32,6,7.3,7.3,0,0,1-2.08,5.44,8.4,8.4,0,0,1-3.72,2l8.2,10.92h-7.52l-7.2-10.52V68.21h-6.16V41.54Zm-3.2,12.12h1.4a5.06,5.06,0,0,0,3.68-1.16,3.59,3.59,0,0,0,1-2.6,3.24,3.24,0,0,0-1.24-2.72,6,6,0,0,0-3.4-.84h-1.44Z"/><path class="cls-1" d="M49.37,83.92H16.46L0,55.42l16.46-28.5H49.37l16.46,28.5Zm-32.53-.65H49L65.07,55.42,49,27.57H16.83L.75,55.42Z"/><path class="cls-1" d="M31.54,97.25,4.92,77.9,8.36,45.17,38.42,31.79,65,51.13,61.61,83.86l-.17.08ZM5.6,77.6l26,18.9L61,83.42l3.36-32-26-18.9L9,45.62Z"/><path class="cls-1" d="M50.75,103.29l-.18,0-32-6.8L8.39,65.15l22-24.46L62.6,47.53l10.17,31.3Zm-31.69-7.4,31.46,6.69L72,78.68,62.1,48.09,30.64,41.41,9.12,65.3Z"/><path class="cls-1" d="M38.56,107.84l-.13-.14L16.54,83.38l10.17-31.3L58.9,45.24l22,24.46L70.75,101l-.18,0ZM17.28,83.23l21.52,23.9,31.46-6.69,9.94-30.59L58.67,46,27.21,52.64Z"/><path class="cls-1" d="M61.47,110.11,31.4,96.73l0-.19L28,64,54.59,44.65,84.65,58,88.1,90.77ZM32,96.29l29.38,13.08,26-18.9L84,58.48,54.67,45.4l-26,18.9Z"/><path class="cls-1" d="M83.32,102.87H50.41L34,74.37l16.46-28.5H83.32l.09.16L99.78,74.37Zm-32.53-.65H82.94L99,74.37,82.94,46.52H50.79L34.71,74.37Z"/><path class="cls-1" d="M70.27,100.75,43.65,81.41l3.44-32.73.17-.08L77.15,35.29l26.62,19.34-3.44,32.73-.17.08ZM44.33,81.1l26,18.9L99.73,86.93l3.36-32L77.07,36,47.7,49.12Z"/><path class="cls-1" d="M87.56,90.74l-.18,0-32-6.8L45.19,52.6l22-24.46L99.41,35l.06.18,10.11,31.12Zm-31.69-7.4L87.32,90l21.52-23.9L98.9,35.54,67.45,28.85,45.93,52.75Z"/><path class="cls-1" d="M67.08,81.4,67,81.27,45.06,56.95l10.17-31.3L87.42,18.8l.13.14,21.9,24.32L99.27,74.56ZM45.79,56.79l21.52,23.9L98.77,74l9.94-30.59L87.19,19.52,55.73,26.21Z"/><path class="cls-1" d="M76.77,74.36,46.7,61l0-.19L43.26,28.25,69.89,8.9,100,22.29,103.4,55ZM47.31,60.53,76.69,73.61l26-18.9-3.36-32L70,9.65,44,28.55Z"/><path class="cls-1" d="M82.76,64H49.85L33.39,35.49,49.85,7H82.76l.09.16L99.21,35.49Zm-32.54-.65H82.38L98.46,35.49,82.38,7.64H50.22L34.14,35.49Z"/><path class="cls-1" d="M53.94,65.46,27.32,46.12l3.44-32.73L60.82,0,87.45,19.34,84,52.07ZM28,45.81l26,18.9L83.4,51.63l3.36-32L60.74.75,31.37,13.83Z"/><path class="cls-1" d="M58.28,65.14,26.09,58.3,15.92,27l22-24.46L70.13,9.38,80.3,40.68Zm-31.69-7.4,31.46,6.69,21.52-23.9L69.63,9.94,38.18,3.26,16.66,27.15Z"/><path class="cls-1" d="M29.93,69.93,7.9,45.47l10.17-31.3L50.27,7.33l22,24.46L62.12,63.08ZM8.64,45.31l21.52,23.9,31.46-6.69,9.94-30.59L50,8,18.58,14.73Z"/><path class="cls-1" d="M38.16,79,8.09,65.6l0-.19L4.65,32.87,31.28,13.53,61.34,26.91l0,.19,3.42,32.54ZM8.7,65.16,38.08,78.24l26-18.9-3.36-32L31.36,14.27l-26,18.9Z"/></svg>